# WaveFront *.obj file (generated by Autodesk ATF)

mtllib support.mtl

g Body1

v 4.744914 14.744914 6.576640
v 4.744914 4.744914 6.576640
v 14.744914 4.744914 6.576640
v 14.744914 14.744914 6.576640
v 0.000000 0.000000 0.000000
v 0.000000 20.000000 0.000000
v 20.000000 20.000000 0.000000
v 20.000000 0.000000 0.000000
vt -0.500000 -0.500000 0.000000
vt 0.500000 -0.500000 0.000000
vt -0.500000 0.500000 0.000000
vt 0.500000 0.500000 0.000000
vt 1.000000 1.000000 0.000000
vt -1.000000 1.000000 0.000000
vt 1.000000 -1.000000 0.000000
vt -1.000000 -1.000000 0.000000
vt 0.000000 0.000000 0.000000
vt 0.000000 -2.000000 0.000000
vt 0.810965 -0.525509 0.000000
vt 0.810965 -1.525509 0.000000
vt 2.000000 0.000000 0.000000
vt 1.474491 0.810965 0.000000
vt 0.000000 0.000000 0.000000
vt 0.474491 0.810965 0.000000
vt 0.000000 2.000000 0.000000
vt -0.841832 1.474491 0.000000
vt 0.000000 0.000000 0.000000
vt -0.841832 0.474491 0.000000
vt 0.000000 0.000000 0.000000
vt -2.000000 0.000000 0.000000
vt -0.525509 -0.841832 0.000000
vt -1.525509 -0.841832 0.000000
vn 0.000000 -0.000000 0.100000
vn 0.000000 -0.000000 0.100000
vn 0.000000 -0.000000 0.100000
vn 0.000000 -0.000000 0.100000
vn 0.000000 0.000000 -0.100000
vn 0.000000 0.000000 -0.100000
vn 0.000000 0.000000 -0.100000
vn 0.000000 0.000000 -0.100000
vn -0.081096 0.000000 0.058509
vn -0.081096 0.000000 0.058509
vn -0.081096 0.000000 0.058509
vn -0.081096 0.000000 0.058509
vn 0.000000 -0.081096 0.058509
vn 0.000000 -0.081096 0.058509
vn 0.000000 -0.081096 0.058509
vn 0.000000 -0.081096 0.058509
vn 0.078123 -0.000000 0.062424
vn 0.078123 -0.000000 0.062424
vn 0.078123 -0.000000 0.062424
vn 0.078123 -0.000000 0.062424
vn 0.000000 0.078123 0.062424
vn 0.000000 0.078123 0.062424
vn 0.000000 0.078123 0.062424
vn 0.000000 0.078123 0.062424
usemtl Steel_-_Satin
f 2/1/1 3/2/2 1/3/3
f 1/3/3 3/2/2 4/4/4
f 6/5/5 7/6/6 5/7/7
f 5/7/7 7/6/6 8/8/8
f 6/9/9 5/10/10 1/11/11
f 1/11/11 5/10/10 2/12/12
f 8/13/13 3/14/14 5/15/15
f 5/15/15 3/14/14 2/16/16
f 7/17/17 4/18/18 8/19/19
f 8/19/19 4/18/18 3/20/20
f 7/21/21 6/22/22 4/23/23
f 4/23/23 6/22/22 1/24/24
# 8 vertices
# 24 texture params
# 24 normals
# 12 facets

# 1 groups
