0
SECTION
2
HEADER
9
$INSUNITS
70
4
9
$ACADVER
1
AC1014
9
$HANDSEED
5
FFFF
0
ENDSEC
0
SECTION
2
TABLES
0
TABLE
2
VPORT
5
8
100
AcDbSymbolTable
0
ENDTAB
0
TABLE
2
LTYPE
5
5
100
AcDbSymbolTable
0
LTYPE
5
14
100
AcDbSymbolTableRecord
100
AcDbLinetypeTableRecord
2
BYBLOCK
70
0
0
LTYPE
5
15
100
AcDbSymbolTableRecord
100
AcDbLinetypeTableRecord
2
BYLAYER
70
0
0
ENDTAB
0
TABLE
2
LAYER
5
2
100
AcDbSymbolTable
70
2
0
LAYER
5
50
100
AcDbSymbolTableRecord
100
AcDbLayerTableRecord
2
0
70
0
6
CONTINUOUS
0
ENDTAB
0
TABLE
2
STYLE
5
3
100
AcDbSymbolTable
70
1
0
STYLE
5
11
100
AcDbSymbolTableRecord
100
AcDbTextStyleTableRecord
2
STANDARD
70
0
0
ENDTAB
0
TABLE
2
VIEW
5
6
100
AcDbSymbolTable
70
0
0
ENDTAB
0
TABLE
2
UCS
5
7
100
AcDbSymbolTable
70
0
0
ENDTAB
0
TABLE
2
APPID
5
9
100
AcDbSymbolTable
70
2
0
APPID
5
12
100
AcDbSymbolTableRecord
100
AcDbRegAppTableRecord
2
ACAD
70
0
0
ENDTAB
0
TABLE
2
DIMSTYLE
5
A
100
AcDbSymbolTable
70
1
0
ENDTAB
0
TABLE
2
BLOCK_RECORD
5
1
100
AcDbSymbolTable
70
1
0
BLOCK_RECORD
5
1F
100
AcDbSymbolTableRecord
100
AcDbBlockTableRecord
2
*MODEL_SPACE
0
BLOCK_RECORD
5
1B
100
AcDbSymbolTableRecord
100
AcDbBlockTableRecord
2
*PAPER_SPACE
0
ENDTAB
0
ENDSEC
0
SECTION
2
BLOCKS
0
BLOCK
5
20
100
AcDbEntity
100
AcDbBlockBegin
2
*MODEL_SPACE
0
ENDBLK
5
21
100
AcDbEntity
100
AcDbBlockEnd
0
BLOCK
5
1C
100
AcDbEntity
100
AcDbBlockBegin
2
*PAPER_SPACE
0
ENDBLK
5
1D
100
AcDbEntity
100
AcDbBlockEnd
0
ENDSEC
0
SECTION
2
ENTITIES
0
LWPOLYLINE
5
100
100
AcDbEntity
8
0
100
AcDbPolyline
90
8
70
1
43
0.0
10
-15
20
-105
10
-88.862020401066033
20
-105
10
-88.862020401066033
20
-93.311378012900775
10
-15
20
-93.311378012900775
10
-15
20
-105
10
-88.862020401066033
20
-105
10
-88.862020401066033
20
-93.311378012900775
10
-15
20
-93.311378012900775
0
LWPOLYLINE
5
101
100
AcDbEntity
8
0
100
AcDbPolyline
90
2
70
1
43
0.0
10
-14.83398963297331
20
-73.297364234501728
10
-14.83398963297331
20
-83.297364234501728
0
LWPOLYLINE
5
102
100
AcDbEntity
8
0
100
AcDbPolyline
90
4
70
1
43
0.0
10
-15
20
-10.155355473208161
10
-15
20
-20.155355473208161
10
-89.245488513749621
20
-20.155355473208161
10
-89.245488513749621
20
-10.155355473208161
0
LWPOLYLINE
5
103
100
AcDbEntity
8
0
100
AcDbPolyline
90
2
70
1
43
0.0
10
-89.028030768092634
20
-73.297364234501728
10
-14.83398963297331
20
-73.297364234501728
0
LWPOLYLINE
5
104
100
AcDbEntity
8
0
100
AcDbPolyline
90
4
70
1
43
0.0
10
-88.719300190340419
20
-124.20457433550241
10
-88.719300190340419
20
-114.20457433550253
10
-15.038084244243333
20
-114.20457433550253
10
-15.038084244243333
20
-124.20457433550241
0
LWPOLYLINE
5
105
100
AcDbEntity
8
0
100
AcDbPolyline
90
8
70
1
43
0.0
10
-88.757384434586015
20
-142.79367899309813
10
-88.757384434586015
20
-132.79367899309813
10
-15
20
-132.79367899309813
10
-15
20
-142.79367899309813
10
-88.757384434586015
20
-142.79367899309813
10
-88.757384434586015
20
-132.79367899309813
10
-15
20
-132.79367899309813
10
-15
20
-142.79367899309813
0
LWPOLYLINE
5
106
100
AcDbEntity
8
0
100
AcDbPolyline
90
2
70
1
43
0.0
10
-89.245488513749621
20
-63.95743727452961
10
-89.245488513749621
20
-53.95743727452961
0
LWPOLYLINE
5
107
100
AcDbEntity
8
0
100
AcDbPolyline
90
8
70
1
43
0.0
10
-89.245488513749621
20
-41.683272209589425
10
-89.245488513749621
20
-31.683272209589433
10
-15
20
-31.683272209589433
10
-15
20
-41.683272209589425
10
-89.245488513749621
20
-41.683272209589425
10
-89.245488513749621
20
-31.683272209589433
10
-15
20
-31.683272209589433
10
-15
20
-41.683272209589425
0
LWPOLYLINE
5
108
100
AcDbEntity
8
0
100
AcDbPolyline
90
4
70
1
43
0.0
10
-15.038084244243333
20
-114.20457433550253
10
-15.038084244243333
20
-124.20457433550241
10
-88.719300190340419
20
-124.20457433550241
10
-88.719300190340419
20
-114.20457433550253
0
LWPOLYLINE
5
109
100
AcDbEntity
8
0
100
AcDbPolyline
90
2
70
1
43
0.0
10
-89.028030768092634
20
-83.297364234501728
10
-89.028030768092634
20
-73.297364234501728
0
LWPOLYLINE
5
110
100
AcDbEntity
8
0
100
AcDbPolyline
90
6
70
1
43
0.0
10
-89.245488513749621
20
-53.95743727452961
10
-15
20
-53.95743727452961
10
-15
20
-63.95743727452961
10
-89.245488513749621
20
-63.95743727452961
10
-15
20
-63.95743727452961
10
-15
20
-53.95743727452961
0
LWPOLYLINE
5
111
100
AcDbEntity
8
0
100
AcDbPolyline
90
2
70
1
43
0.0
10
-14.83398963297331
20
-83.297364234501728
10
-89.028030768092634
20
-83.297364234501728
0
LWPOLYLINE
5
112
100
AcDbEntity
8
0
100
AcDbPolyline
90
4
70
1
43
0.0
10
-15
20
-20.155355473208161
10
-89.245488513749621
20
-20.155355473208161
10
-89.245488513749621
20
-10.155355473208161
10
-15
20
-10.155355473208161
0
ENDSEC
0
SECTION
2
OBJECTS
0
DICTIONARY
5
C
100
AcDbDictionary
3
ACAD_GROUP
350
D
3
ACAD_MLINESTYLE
350
17
0
DICTIONARY
5
D
100
AcDbDictionary
0
DICTIONARY
5
1A
330
C
100
AcDbDictionary
0
DICTIONARY
5
17
100
AcDbDictionary
0
ENDSEC
0
EOF
