M48
;GenerationSoftware,Autodesk,EAGLE,9.6.2*%
;CreationDate,2022-08-23T02:04:53Z*%
FMAT,2
ICI,OFF
METRIC,TZ,000.000
T7C0.350
T6C0.800
T5C0.813
T4C1.000
T3C1.016
T2C1.118
T1C3.200
%
G90
M71
T1
X2540Y85090
X132080Y1270
X2540Y1270
X132080Y85090
T2
X67310Y30480
X67310Y33020
X67310Y35560
X67310Y38100
X67310Y40640
X67310Y43180
X67310Y45720
X67310Y48260
X67310Y50800
X67310Y53340
X67310Y55880
X67310Y58420
X67310Y60960
X67310Y25400
X67310Y27940
X52070Y22860
X52070Y60960
X52070Y58420
X52070Y55880
X52070Y53340
X52070Y50800
X52070Y48260
X52070Y45720
X52070Y43180
X52070Y40640
X52070Y38100
X52070Y35560
X52070Y33020
X52070Y30480
X52070Y27940
X52070Y25400
X52070Y20320
X52070Y17780
X52070Y15240
X52070Y12700
X67310Y12700
X67310Y15240
X67310Y17780
X67310Y20320
X67310Y22860
T3
X123190Y60960
X123190Y58420
X123190Y55880
X123190Y53340
X123190Y50800
X15240Y73660
X119380Y34290
X119380Y31750
X119380Y29210
X119380Y26670
X119380Y24130
X119380Y21590
X119380Y19050
X119380Y16510
X119380Y13970
X123190Y31750
X123190Y29210
X123190Y26670
X123190Y13970
X123190Y24130
X123190Y21590
X123190Y19050
X10160Y73660
X27940Y3810
X22860Y3810
X62230Y2540
X59690Y2540
X123190Y16510
X72390Y40640
X57150Y2540
X54610Y2540
X127000Y76200
X124460Y76200
X121920Y76200
X123190Y71120
X123190Y68580
X123190Y66040
X72390Y43180
X123190Y11430
X123190Y5080
X123190Y63500
X123190Y2540
X72390Y45720
X72390Y48260
X72390Y50800
X72390Y53340
X72390Y55880
X72390Y58420
X72390Y60960
T4
X30640Y61830
X12540Y61830
X30640Y21990
X12540Y21990
X12700Y10620
T5
X78740Y5715
X90170Y67310
X100330Y66040
X92710Y66040
X100330Y58420
X92710Y58420
X100330Y50800
X92710Y50800
X116840Y71120
X109220Y71120
X116840Y63500
X109220Y63500
X118110Y55880
X116840Y48260
X109220Y48260
X43180Y33020
X45720Y20193
X45720Y15367
X30480Y72390
X30480Y74930
X90170Y52070
X43180Y3810
X41275Y2540
X43180Y1270
X36830Y10160
X36830Y2540
X53340Y5080
X45720Y5080
X46990Y40640
X46990Y43180
X45720Y8890
X45720Y26670
X43180Y26670
X43180Y8890
X78740Y33020
X76200Y33020
X72390Y5715
X67310Y5715
X69850Y5715
X83820Y5715
X92710Y73660
X81280Y5715
X97790Y5715
X92710Y5715
X95250Y5715
X111760Y5715
X106680Y5715
X109220Y5715
X108585Y17780
X108585Y12700
X108585Y15240
X102235Y25400
X102235Y20320
X102235Y22860
X108585Y33020
X108585Y27940
X108585Y30480
X102235Y40640
X102235Y35560
X102235Y38100
X83820Y33020
X86360Y33020
X111760Y2540
X119380Y2540
X88900Y33020
X81280Y33020
X86360Y25400
X88900Y25400
X83820Y25400
X81280Y25400
X91440Y33020
X91440Y25400
X78740Y25400
X76200Y25400
X76200Y20320
X78740Y20320
X81280Y20320
X83820Y20320
X86360Y20320
X88900Y20320
X86360Y12700
X88900Y12700
X110490Y55880
X88265Y50800
X90170Y49530
X90170Y45720
X88265Y44450
X90170Y43180
X106680Y71120
X104775Y69850
X106680Y68580
X106680Y63500
X104775Y62230
X106680Y60960
X106680Y55880
X104775Y54610
X106680Y53340
X90170Y59690
X88265Y58420
X90170Y57150
X83820Y12700
X88265Y66040
X90170Y64770
X106680Y48260
X104775Y46990
X106680Y45720
X78740Y66040
X86360Y66040
X78740Y58420
X86360Y58420
X78740Y50800
X86360Y50800
X78740Y44450
X86360Y44450
X95250Y69850
X102870Y69850
X95250Y62230
X102870Y62230
X95250Y54610
X102870Y54610
X95250Y46990
X102870Y46990
X81280Y12700
X91440Y20320
X91440Y12700
X78740Y12700
X76200Y12700
X24130Y67310
X24130Y74930
X43180Y40640
X100330Y73660
T6
X12700Y4620
X17500Y7620
T7
X38100Y8890
X15240Y38100
X15240Y41910
X27940Y41910
X27940Y38100
X76200Y36830
X72390Y36830
X83820Y30480
X77470Y22860
X82550Y19050
X85090Y19050
X113030Y41910
X119380Y41910
X125730Y41910
X113030Y36830
X59690Y12700
X125730Y36830
X113030Y21590
X123190Y7620
X128270Y7620
X113030Y29210
X74930Y3810
X88900Y3810
X30480Y26670
X25400Y22860
X35560Y62230
X30480Y57150
X109220Y21590
X62230Y12700
X57150Y12700
X95250Y49530
X119380Y36830
M30