G04 EAGLE Gerber RS-274X export*
G75*
%MOMM*%
%FSLAX34Y34*%
%LPD*%
%INSoldermask Bottom*%
%IPPOS*%
%AMOC8*
5,1,8,0,0,1.08239X$1,22.5*%
G01*
%ADD10P,1.649562X8X202.500000*%
%ADD11P,1.649562X8X22.500000*%
%ADD12P,1.649562X8X292.500000*%
%ADD13C,2.387600*%
%ADD14C,1.727200*%
%ADD15C,1.524000*%
%ADD16P,1.649562X8X112.500000*%
%ADD17R,6.654800X6.654800*%
%ADD18R,1.879600X1.879600*%
%ADD19C,1.879600*%
%ADD20C,1.524000*%
%ADD21C,3.403200*%
%ADD22C,2.743200*%
%ADD23P,2.969212X8X22.500000*%
%ADD24C,0.959600*%


D10*
X457200Y266700D03*
X431800Y266700D03*
D11*
X431800Y88900D03*
X457200Y88900D03*
D12*
X469900Y431800D03*
X469900Y406400D03*
D13*
X175000Y87122D02*
X175000Y65278D01*
X137922Y46200D02*
X116078Y46200D01*
X116078Y106200D02*
X137922Y106200D01*
D14*
X716280Y406400D02*
X731520Y406400D01*
X731520Y431800D02*
X716280Y431800D01*
X716280Y457200D02*
X731520Y457200D01*
X731520Y482600D02*
X716280Y482600D01*
X716280Y508000D02*
X731520Y508000D01*
X731520Y533400D02*
X716280Y533400D01*
X716280Y558800D02*
X731520Y558800D01*
X731520Y584200D02*
X716280Y584200D01*
X716280Y609600D02*
X731520Y609600D01*
D12*
X304800Y749300D03*
X304800Y723900D03*
D15*
X457200Y153670D03*
X457200Y201930D03*
D16*
X431800Y330200D03*
X431800Y406400D03*
D12*
X241300Y749300D03*
X241300Y673100D03*
D17*
X306400Y618300D03*
X125400Y618300D03*
X125400Y219900D03*
X306400Y219900D03*
D18*
X520700Y609600D03*
D19*
X520700Y584200D03*
X520700Y558800D03*
X520700Y533400D03*
X520700Y508000D03*
X520700Y482600D03*
X520700Y457200D03*
X520700Y431800D03*
X520700Y406400D03*
X520700Y381000D03*
X520700Y355600D03*
X520700Y330200D03*
X520700Y304800D03*
X520700Y279400D03*
X520700Y254000D03*
X520700Y228600D03*
X520700Y203200D03*
X520700Y177800D03*
X520700Y152400D03*
X520700Y127000D03*
X673100Y127000D03*
X673100Y152400D03*
X673100Y177800D03*
X673100Y203200D03*
X673100Y228600D03*
X673100Y254000D03*
X673100Y279400D03*
X673100Y304800D03*
X673100Y330200D03*
X673100Y355600D03*
X673100Y381000D03*
X673100Y406400D03*
X673100Y431800D03*
X673100Y457200D03*
X673100Y482600D03*
X673100Y508000D03*
X673100Y533400D03*
X673100Y558800D03*
X673100Y584200D03*
X673100Y609600D03*
D20*
X762000Y133604D02*
X762000Y120396D01*
X787400Y120396D02*
X787400Y133604D01*
X914400Y133604D02*
X914400Y120396D01*
X914400Y196596D02*
X914400Y209804D01*
X812800Y133604D02*
X812800Y120396D01*
X838200Y120396D02*
X838200Y133604D01*
X889000Y133604D02*
X889000Y120396D01*
X863600Y120396D02*
X863600Y133604D01*
X889000Y196596D02*
X889000Y209804D01*
X863600Y209804D02*
X863600Y196596D01*
X838200Y196596D02*
X838200Y209804D01*
X812800Y209804D02*
X812800Y196596D01*
X787400Y196596D02*
X787400Y209804D01*
X762000Y209804D02*
X762000Y196596D01*
X762000Y247396D02*
X762000Y260604D01*
X787400Y260604D02*
X787400Y247396D01*
X914400Y247396D02*
X914400Y260604D01*
X914400Y323596D02*
X914400Y336804D01*
X812800Y260604D02*
X812800Y247396D01*
X838200Y247396D02*
X838200Y260604D01*
X889000Y260604D02*
X889000Y247396D01*
X863600Y247396D02*
X863600Y260604D01*
X889000Y323596D02*
X889000Y336804D01*
X863600Y336804D02*
X863600Y323596D01*
X838200Y323596D02*
X838200Y336804D01*
X812800Y336804D02*
X812800Y323596D01*
X787400Y323596D02*
X787400Y336804D01*
X762000Y336804D02*
X762000Y323596D01*
X723900Y63754D02*
X723900Y50546D01*
X673100Y50546D02*
X673100Y63754D01*
X698500Y63754D02*
X698500Y50546D01*
X838200Y50546D02*
X838200Y63754D01*
X787400Y63754D02*
X787400Y50546D01*
X812800Y50546D02*
X812800Y63754D01*
X977900Y63754D02*
X977900Y50546D01*
X927100Y50546D02*
X927100Y63754D01*
X952500Y63754D02*
X952500Y50546D01*
X1117600Y50546D02*
X1117600Y63754D01*
X1066800Y63754D02*
X1066800Y50546D01*
X1092200Y50546D02*
X1092200Y63754D01*
X1092454Y177800D02*
X1079246Y177800D01*
X1079246Y127000D02*
X1092454Y127000D01*
X1092454Y152400D02*
X1079246Y152400D01*
X1028954Y254000D02*
X1015746Y254000D01*
X1015746Y203200D02*
X1028954Y203200D01*
X1028954Y228600D02*
X1015746Y228600D01*
X1079246Y330200D02*
X1092454Y330200D01*
X1092454Y279400D02*
X1079246Y279400D01*
X1079246Y304800D02*
X1092454Y304800D01*
X1028954Y406400D02*
X1015746Y406400D01*
X1015746Y355600D02*
X1028954Y355600D01*
X1028954Y381000D02*
X1015746Y381000D01*
D14*
X1224280Y25400D02*
X1239520Y25400D01*
X1239520Y50800D02*
X1224280Y50800D01*
D11*
X1117600Y25400D03*
X1193800Y25400D03*
D14*
X1224280Y114300D02*
X1239520Y114300D01*
X1239520Y139700D02*
X1224280Y139700D01*
X1224280Y165100D02*
X1239520Y165100D01*
X1239520Y190500D02*
X1224280Y190500D01*
X1224280Y215900D02*
X1239520Y215900D01*
X1239520Y241300D02*
X1224280Y241300D01*
X1224280Y266700D02*
X1239520Y266700D01*
X1239520Y292100D02*
X1224280Y292100D01*
X1224280Y317500D02*
X1239520Y317500D01*
X1201420Y139700D02*
X1186180Y139700D01*
X1186180Y165100D02*
X1201420Y165100D01*
X1201420Y190500D02*
X1186180Y190500D01*
X1186180Y215900D02*
X1201420Y215900D01*
X1201420Y241300D02*
X1186180Y241300D01*
X1186180Y266700D02*
X1201420Y266700D01*
X1201420Y292100D02*
X1186180Y292100D01*
X1186180Y317500D02*
X1201420Y317500D01*
X1201420Y342900D02*
X1186180Y342900D01*
D16*
X901700Y520700D03*
X882650Y508000D03*
X901700Y495300D03*
X901700Y457200D03*
X882650Y444500D03*
X901700Y431800D03*
X1066800Y711200D03*
X1047750Y698500D03*
X1066800Y685800D03*
X1066800Y635000D03*
X1047750Y622300D03*
X1066800Y609600D03*
X1066800Y558800D03*
X1047750Y546100D03*
X1066800Y533400D03*
X901700Y596900D03*
X882650Y584200D03*
X901700Y571500D03*
X901700Y673100D03*
X882650Y660400D03*
X901700Y647700D03*
X1066800Y482600D03*
X1047750Y469900D03*
X1066800Y457200D03*
D11*
X787400Y660400D03*
X863600Y660400D03*
X787400Y584200D03*
X863600Y584200D03*
X787400Y508000D03*
X863600Y508000D03*
X787400Y444500D03*
X863600Y444500D03*
X952500Y698500D03*
X1028700Y698500D03*
X952500Y622300D03*
X1028700Y622300D03*
X952500Y546100D03*
X1028700Y546100D03*
X952500Y469900D03*
X1028700Y469900D03*
D14*
X1224280Y508000D02*
X1239520Y508000D01*
X1239520Y533400D02*
X1224280Y533400D01*
X1224280Y558800D02*
X1239520Y558800D01*
X1239520Y584200D02*
X1224280Y584200D01*
X1224280Y609600D02*
X1239520Y609600D01*
X1239520Y635000D02*
X1224280Y635000D01*
X1224280Y660400D02*
X1239520Y660400D01*
X1239520Y685800D02*
X1224280Y685800D01*
X1224280Y711200D02*
X1239520Y711200D01*
D10*
X1003300Y736600D03*
X927100Y736600D03*
X1003300Y660400D03*
X927100Y660400D03*
X1003300Y584200D03*
X927100Y584200D03*
X1003300Y508000D03*
X927100Y508000D03*
X1168400Y711200D03*
X1092200Y711200D03*
X1168400Y635000D03*
X1092200Y635000D03*
X1181100Y558800D03*
X1104900Y558800D03*
X1168400Y482600D03*
X1092200Y482600D03*
D14*
X1219200Y754380D02*
X1219200Y769620D01*
X1244600Y769620D02*
X1244600Y754380D01*
X1270000Y754380D02*
X1270000Y769620D01*
X546100Y33020D02*
X546100Y17780D01*
X571500Y17780D02*
X571500Y33020D01*
X596900Y33020D02*
X596900Y17780D01*
X622300Y17780D02*
X622300Y33020D01*
D16*
X431800Y38100D03*
X412750Y25400D03*
X431800Y12700D03*
D12*
X368300Y101600D03*
X368300Y25400D03*
D10*
X533400Y50800D03*
X457200Y50800D03*
D21*
X25400Y850900D03*
X1320800Y850900D03*
X1320800Y12700D03*
X25400Y12700D03*
D22*
X228600Y38100D03*
D23*
X279400Y38100D03*
D22*
X101600Y736600D03*
D23*
X152400Y736600D03*
D24*
X952500Y495300D03*
X571500Y127000D03*
X596900Y127000D03*
X622300Y127000D03*
X381000Y88900D03*
X152400Y381000D03*
X152400Y419100D03*
X279400Y419100D03*
X279400Y381000D03*
X762000Y368300D03*
X723900Y368300D03*
X838200Y304800D03*
X774700Y228600D03*
X825500Y190500D03*
X850900Y190500D03*
X1130300Y419100D03*
X1193800Y419100D03*
X1257300Y419100D03*
X1130300Y368300D03*
X1193800Y368300D03*
X1257300Y368300D03*
X1092200Y215900D03*
X1130300Y215900D03*
X1231900Y76200D03*
X1282700Y76200D03*
X1130300Y292100D03*
X749300Y38100D03*
X889000Y38100D03*
X304800Y266700D03*
X254000Y228600D03*
X355600Y622300D03*
X304800Y571500D03*
M02*
